<svg id="Calque_1" data-name="Calque 1" xmlns="http://www.w3.org/2000/svg" viewBox="0 0 585.35 591.05"><defs><style>.cls-1{fill:#f7f7f7;}.cls-2{fill:#edeeee;}.cls-3{fill:#d84459;}.cls-4{fill:#c84054;}.cls-5{fill:#373f3f;}.cls-6{fill:#2b3332;}</style></defs><title>pokeball</title><g id="g14"><g id="g20"><path id="path22" class="cls-1" d="M679.67,384.07H387c0,163.21,131,295.52,292.67,295.52Z" transform="translate(-387 -88.55)"/></g><g id="g24"><path id="path26" class="cls-2" d="M679.67,679.59c161.64,0,292.68-132.31,292.68-295.52H679.67Z" transform="translate(-387 -88.55)"/></g><g id="g28"><path id="path30" class="cls-3" d="M679.67,88.55C518,88.55,387,220.86,387,384.07H679.67Z" transform="translate(-387 -88.55)"/></g><g id="g32"><path id="path34" class="cls-4" d="M972.35,384.07c0-163.21-131-295.52-292.68-295.52V384.07Z" transform="translate(-387 -88.55)"/></g><g id="g36"><path id="path38" class="cls-5" d="M679.67,384.07H387a297.66,297.66,0,0,0,2.58,39.4H679.67Z" transform="translate(-387 -88.55)"/></g><g id="g40"><path id="path42" class="cls-6" d="M679.67,423.47h290a301.06,301.06,0,0,0,2.64-39.4H679.67Z" transform="translate(-387 -88.55)"/></g><g id="g44"><path id="path46" class="cls-2" d="M599.83,403.78c0-44.51,35.76-80.62,79.84-80.62s79.85,36.11,79.85,80.62-35.76,80.62-79.85,80.62-79.84-36.1-79.84-80.62" transform="translate(-387 -88.55)"/></g><g id="g48"><path id="path50" class="cls-1" d="M679.67,484.4c-44.08,0-79.84-36.1-79.84-80.62s35.76-80.62,79.84-80.62Z" transform="translate(-387 -88.55)"/></g><g id="g52"><path id="path54" class="cls-1" d="M679.67,484.4c-44.08,0-79.84-36.1-79.84-80.62s35.76-80.62,79.84-80.62Z" transform="translate(-387 -88.55)"/></g><g id="g56"><path id="path58" class="cls-5" d="M679.67,467.69A62.82,62.82,0,0,1,634.89,449a64.49,64.49,0,0,1,0-90.44,63,63,0,0,1,44.78-18.68h0V306.54h0A95.41,95.41,0,0,0,611.56,335c-37.59,37.94-37.59,99.68,0,137.62A95.49,95.49,0,0,0,679.67,501h0Z" transform="translate(-387 -88.55)"/></g><g id="g60"><path id="path62" class="cls-6" d="M747.79,335a95.55,95.55,0,0,0-68.12-28.46v33.34a63,63,0,0,1,44.79,18.68,64.49,64.49,0,0,1,0,90.44,62.83,62.83,0,0,1-44.79,18.69V501a95.51,95.51,0,0,0,68.12-28.39c37.59-37.94,37.59-99.68,0-137.62" transform="translate(-387 -88.55)"/></g></g></svg>