<?xml version="1.0" encoding="UTF-8" standalone="no"?>
<svg
   xmlns:dc="http://purl.org/dc/elements/1.1/"
   xmlns:cc="http://creativecommons.org/ns#"
   xmlns:rdf="http://www.w3.org/1999/02/22-rdf-syntax-ns#"
   xmlns:svg="http://www.w3.org/2000/svg"
   xmlns="http://www.w3.org/2000/svg"
   viewBox="0 0 2560 1440"
   height="1440"
   width="2560"
   xml:space="preserve"
   id="svg2"
   version="1.1"><metadata
     id="metadata8"><rdf:RDF><cc:Work
         rdf:about=""><dc:format>image/svg+xml</dc:format><dc:type
           rdf:resource="http://purl.org/dc/dcmitype/StillImage" /></cc:Work></rdf:RDF></metadata><defs
     id="defs6"><clipPath
       id="clipPath18"
       clipPathUnits="userSpaceOnUse"><path
         id="path16"
         d="M 0,1080 H 1920 V 0 H 0 Z" /></clipPath></defs><g
     transform="matrix(1.3333333,0,0,-1.3333333,0,1440)"
     id="g10"><g
       id="g12"><g
         clip-path="url(#clipPath18)"
         id="g14"><g
           transform="translate(1026.1963,515.5615)"
           id="g20"><path
             id="path22"
             style="fill:#f7f7f7;fill-opacity:1;fill-rule:nonzero;stroke:none"
             d="m 0,0 h -409.905 c 0,-226.377 183.529,-409.905 409.905,-409.905 z" /></g><g
           transform="translate(1026.1963,105.6563)"
           id="g24"><path
             id="path26"
             style="fill:#edeeee;fill-opacity:1;fill-rule:nonzero;stroke:none"
             d="M 0,0 C 226.378,0 409.905,183.528 409.905,409.905 H 0 Z" /></g><g
           transform="translate(1026.1963,925.4673)"
           id="g28"><path
             id="path30"
             style="fill:#d84459;fill-opacity:1;fill-rule:nonzero;stroke:none"
             d="M 0,0 C -226.376,0 -409.905,-183.528 -409.905,-409.906 H 0 Z" /></g><g
           transform="translate(1436.1016,515.5615)"
           id="g32"><path
             id="path34"
             style="fill:#c84054;fill-opacity:1;fill-rule:nonzero;stroke:none"
             d="M 0,0 C 0,226.377 -183.527,409.906 -409.905,409.906 V 0 Z" /></g><g
           transform="translate(1026.1963,515.5615)"
           id="g36"><path
             id="path38"
             style="fill:#373f3f;fill-opacity:1;fill-rule:nonzero;stroke:none"
             d="m 0,0 h -409.905 c 0,-18.582 1.202,-36.728 3.607,-54.653 H 0 Z" /></g><g
           transform="translate(1026.1963,460.9082)"
           id="g40"><path
             id="path42"
             style="fill:#2b3332;fill-opacity:1;fill-rule:nonzero;stroke:none"
             d="m 0,0 h 406.217 c 2.377,17.926 3.688,36.071 3.688,54.653 H 0 Z" /></g><g
           transform="translate(914.3721,488.2227)"
           id="g44"><path
             id="path46"
             style="fill:#edeeee;fill-opacity:1;fill-rule:nonzero;stroke:none"
             d="m 0,0 c 0,61.744 50.081,111.825 111.825,111.825 61.744,0 111.824,-50.081 111.824,-111.825 0,-61.743 -50.08,-111.825 -111.824,-111.825 C 50.081,-111.825 0,-61.743 0,0" /></g><g
           transform="translate(1026.1973,376.3975)"
           id="g48"><path
             id="path50"
             style="fill:#f7f7f7;fill-opacity:1;fill-rule:nonzero;stroke:none"
             d="m 0,0 c -61.744,0 -111.825,50.082 -111.825,111.825 0,61.744 50.081,111.825 111.825,111.825 z" /></g><g
           transform="translate(1026.1973,376.3975)"
           id="g52"><path
             id="path54"
             style="fill:#f7f7f7;fill-opacity:1;fill-rule:nonzero;stroke:none"
             d="m 0,0 c -61.744,0 -111.825,50.082 -111.825,111.825 0,61.744 50.081,111.825 111.825,111.825 z" /></g><g
           transform="translate(1026.1973,399.5742)"
           id="g56"><path
             id="path58"
             style="fill:#373f3f;fill-opacity:1;fill-rule:nonzero;stroke:none"
             d="m 0,0 c -22.723,0 -45.445,8.641 -62.727,25.922 -34.563,34.563 -34.563,90.813 0,125.453 17.33,17.233 39.98,25.908 62.726,25.908 H 0 v 46.25 h -0.029 c -34.554,0 -69.098,-13.161 -95.372,-39.483 -52.645,-52.626 -52.645,-138.254 0,-190.879 26.274,-26.294 60.837,-39.383 95.4,-39.383 l 0.001,0 z" /></g><g
           transform="translate(1121.5977,583.624)"
           id="g60"><path
             id="path62"
             style="fill:#2b3332;fill-opacity:1;fill-rule:nonzero;stroke:none"
             d="m 0,0 c -26.306,26.315 -60.856,39.476 -95.4,39.483 v -46.25 c 22.746,0 45.416,-8.674 62.726,-25.907 34.563,-34.64 34.563,-90.89 0,-125.454 -17.282,-17.281 -40.005,-25.922 -62.726,-25.922 v -46.212 c 34.562,0 69.127,13.089 95.4,39.383 C 52.645,-138.254 52.645,-52.626 0,0" /></g></g></g></g></svg>